<svg xmlns="http://www.w3.org/2000/svg" width="1000" height="560" viewBox="0 0 1000 560">
<rect width="1000" height="560" rx="28" fill="#0b0f14"/>
<text x="60" y="70" font-family="Arial" font-size="34" font-weight="700" fill="#eef3f8">Monthly Demand Forecast</text>
<text x="60" y="106" font-family="Arial" font-size="16" fill="#9aa8b7">Synthetic time-series forecasting demo · 6-month horizon</text>
<line x1="90" y1="460" x2="940" y2="460" stroke="#334155" stroke-width="2"/>
<line x1="90" y1="150" x2="90" y2="460" stroke="#334155" stroke-width="2"/>
<polyline points="90,370 140,343 190,280 240,235 290,280 340,271 390,334 440,343 490,375 540,325 590,330 640,244" fill="none" stroke="#5aa7ff" stroke-width="5" stroke-linejoin="round" stroke-linecap="round"/>
<polyline points="640,244 690,210 740,238 790,246 840,242 890,218 940,177" fill="none" stroke="#8a7cff" stroke-width="5" stroke-dasharray="12 10" stroke-linejoin="round" stroke-linecap="round"/>
<circle cx="640" cy="244" r="7" fill="#5aa7ff"/>
<circle cx="940" cy="177" r="7" fill="#8a7cff"/>
<text x="90" y="505" font-family="Arial" font-size="14" fill="#9aa8b7">Historical demand</text>
<line x1="220" y1="499" x2="270" y2="499" stroke="#5aa7ff" stroke-width="5"/>
<text x="315" y="505" font-family="Arial" font-size="14" fill="#9aa8b7">Forecast</text>
<line x1="395" y1="499" x2="445" y2="499" stroke="#8a7cff" stroke-width="5" stroke-dasharray="10 8"/>
<rect x="610" y="485" width="290" height="38" rx="19" fill="#1f2937"/>
<text x="650" y="510" font-family="Arial" font-size="15" font-weight="700" fill="#c4b5fd">Validation MAE: 6.27 units</text>
</svg>